<svg width="263" height="116" viewBox="0 0 263 116" fill="none" xmlns="http://www.w3.org/2000/svg">
<path d="M29.6543 20.9629C27.6855 30.7246 25.9629 40.4316 24.4863 50.084C23.0371 59.709 21.793 69.4023 20.7539 79.1641L8.4082 79.3281C7.45117 69.4844 6.28906 59.709 4.92188 50.002C3.55469 40.2949 2.02344 30.5605 0.328125 20.7988L10.582 20.6348C11.0195 28.8379 11.5938 36.9453 12.3047 44.957C13.0156 52.9688 13.8086 61.0078 14.6836 69.0742C15.75 60.9258 16.6934 52.8047 17.5137 44.7109C18.334 36.5898 18.9902 28.4414 19.4824 20.2656L29.6543 20.9629ZM65.7316 57.0566C64.884 57.002 64.0227 56.9609 63.1477 56.9336C62.2727 56.9062 61.3977 56.8926 60.5227 56.8926C60.0305 56.8926 59.5109 56.9062 58.9641 56.9336C58.4445 56.9609 57.925 56.9746 57.4055 56.9746L57.2414 71.6172C59.4836 71.5625 61.6574 71.4531 63.7629 71.2891C65.8957 71.125 68.1516 70.8652 70.5305 70.5098V79.082C68.9992 79.0273 67.509 78.9863 66.0598 78.959C64.6379 78.9316 63.216 78.918 61.7941 78.918C59.6613 78.918 57.5559 78.9453 55.4777 79C53.3996 79.082 51.2531 79.1914 49.0383 79.3281C49.2844 74.2422 49.4758 69.2109 49.6125 64.2344C49.7766 59.2305 49.8586 54.1855 49.8586 49.0996C49.8586 44.2324 49.7902 39.4062 49.6535 34.6211C49.5441 29.8086 49.3391 24.9688 49.0383 20.1016C52.2648 20.3477 55.341 20.4707 58.2668 20.4707C60.1262 20.4707 61.9719 20.4297 63.8039 20.3477C65.6633 20.2383 67.6457 20.1016 69.7512 19.9375V29.3711C68.0559 29.0703 66.3742 28.8379 64.7062 28.6738C63.0656 28.5098 61.425 28.4277 59.7844 28.4277H58.1848C57.9113 31.8457 57.7199 35.25 57.6105 38.6406C57.5285 42.0312 57.4602 45.4355 57.4055 48.8535C58.1164 48.9082 58.8273 48.9355 59.5383 48.9355C60.2766 48.9355 61.0285 48.9355 61.7941 48.9355C62.423 48.9355 63.0656 48.9355 63.7219 48.9355C64.3781 48.9355 65.048 48.9082 65.7316 48.8535V57.0566ZM120.758 19.8555C120.403 25.3516 120.129 30.8066 119.938 36.2207C119.746 41.6074 119.651 47.0215 119.651 52.4629C119.651 56.7012 119.705 60.8848 119.815 65.0137C119.952 69.1426 120.17 73.2988 120.471 77.4824L112.186 77.2363C111.092 73.6816 110.012 70.1543 108.946 66.6543C107.907 63.127 106.868 59.627 105.829 56.1543C104.789 52.6816 103.723 49.2227 102.629 45.7773C101.563 42.332 100.455 38.9004 99.307 35.4824C99.3891 42.6191 99.5121 49.7422 99.6762 56.8516C99.8676 63.9336 100.196 71.002 100.661 78.0566L91.1859 77.9746C91.5141 69.252 91.6781 60.4883 91.6781 51.6836C91.6781 46.2695 91.6234 40.9102 91.5141 35.6055C91.4047 30.3008 91.2406 24.9688 91.0219 19.6094L102.506 19.8555C103.901 25.8711 105.391 31.9824 106.977 38.1895C108.563 44.3965 110.245 50.5215 112.022 56.5645C111.83 50.3848 111.543 44.2051 111.161 38.0254C110.805 31.8184 110.409 25.7344 109.971 19.7734L120.758 19.8555ZM172.421 19.8555C172.066 25.3516 171.793 30.8066 171.601 36.2207C171.41 41.6074 171.314 47.0215 171.314 52.4629C171.314 56.7012 171.369 60.8848 171.478 65.0137C171.615 69.1426 171.834 73.2988 172.134 77.4824L163.849 77.2363C162.755 73.6816 161.675 70.1543 160.609 66.6543C159.57 63.127 158.531 59.627 157.492 56.1543C156.453 52.6816 155.386 49.2227 154.293 45.7773C153.226 42.332 152.119 38.9004 150.97 35.4824C151.052 42.6191 151.175 49.7422 151.339 56.8516C151.531 63.9336 151.859 71.002 152.324 78.0566L142.849 77.9746C143.177 69.252 143.341 60.4883 143.341 51.6836C143.341 46.2695 143.287 40.9102 143.177 35.6055C143.068 30.3008 142.904 24.9688 142.685 19.6094L154.17 19.8555C155.564 25.8711 157.054 31.9824 158.64 38.1895C160.226 44.3965 161.908 50.5215 163.685 56.5645C163.494 50.3848 163.207 44.2051 162.824 38.0254C162.468 31.8184 162.072 25.7344 161.634 19.7734L172.421 19.8555ZM211.042 57.0566C210.194 57.002 209.333 56.9609 208.458 56.9336C207.583 56.9062 206.708 56.8926 205.833 56.8926C205.341 56.8926 204.821 56.9062 204.274 56.9336C203.755 56.9609 203.235 56.9746 202.716 56.9746L202.552 71.6172C204.794 71.5625 206.968 71.4531 209.073 71.2891C211.206 71.125 213.462 70.8652 215.841 70.5098V79.082C214.309 79.0273 212.819 78.9863 211.37 78.959C209.948 78.9316 208.526 78.918 207.104 78.918C204.971 78.918 202.866 78.9453 200.788 79C198.71 79.082 196.563 79.1914 194.348 79.3281C194.595 74.2422 194.786 69.2109 194.923 64.2344C195.087 59.2305 195.169 54.1855 195.169 49.0996C195.169 44.2324 195.1 39.4062 194.964 34.6211C194.854 29.8086 194.649 24.9688 194.348 20.1016C197.575 20.3477 200.651 20.4707 203.577 20.4707C205.436 20.4707 207.282 20.4297 209.114 20.3477C210.973 20.2383 212.956 20.1016 215.061 19.9375V29.3711C213.366 29.0703 211.684 28.8379 210.016 28.6738C208.376 28.5098 206.735 28.4277 205.095 28.4277H203.495C203.221 31.8457 203.03 35.25 202.921 38.6406C202.839 42.0312 202.77 45.4355 202.716 48.8535C203.427 48.9082 204.137 48.9355 204.848 48.9355C205.587 48.9355 206.339 48.9355 207.104 48.9355C207.733 48.9355 208.376 48.9355 209.032 48.9355C209.688 48.9355 210.358 48.9082 211.042 48.8535V57.0566ZM260.408 37.6562C260.408 39.4883 260.23 41.334 259.875 43.1934C259.547 45.0254 259 46.8027 258.234 48.5254C257.469 50.2207 256.484 51.8203 255.281 53.3242C254.078 54.8008 252.602 56.1133 250.852 57.2617C252.383 61.1719 254.064 64.9316 255.896 68.541C257.756 72.123 259.82 75.582 262.09 78.918L251.836 79.4922L244.863 59.6816C244.973 63.0176 245.109 66.3262 245.273 69.6074C245.438 72.8887 245.643 76.1289 245.889 79.3281H235.881C236.318 73.1211 236.633 66.9141 236.824 60.707C237.043 54.5 237.152 48.252 237.152 41.9629C237.152 38.3262 237.125 34.7031 237.07 31.0938C237.016 27.457 236.906 23.793 236.742 20.1016C238.191 19.6641 239.654 19.377 241.131 19.2402C242.635 19.1035 243.906 19.0352 244.945 19.0352C245.684 19.0352 246.572 19.1172 247.611 19.2812C248.678 19.418 249.785 19.7188 250.934 20.1836C252.082 20.6484 253.217 21.3047 254.338 22.1523C255.486 23 256.498 24.1211 257.373 25.5156C258.275 26.8828 259 28.5645 259.547 30.5605C260.121 32.5293 260.408 34.8945 260.408 37.6562ZM244.781 53.0371C245.738 52.7637 246.572 52.3672 247.283 51.8477C248.021 51.3008 248.664 50.6855 249.211 50.002C249.758 49.3184 250.209 48.5938 250.564 47.8281C250.947 47.0625 251.262 46.2969 251.508 45.5312C252.055 43.7539 252.369 41.8125 252.451 39.707C252.451 39.6523 252.438 39.3242 252.41 38.7227C252.41 38.0938 252.342 37.3145 252.205 36.3848C252.068 35.4551 251.863 34.4434 251.59 33.3496C251.344 32.2559 250.975 31.2031 250.482 30.1914C249.99 29.1523 249.361 28.2363 248.596 27.4434C247.83 26.6504 246.9 26.0898 245.807 25.7617C245.479 30.0547 245.219 34.334 245.027 38.5996C244.863 42.8379 244.781 47.1172 244.781 51.4375V53.0371Z" fill="#FAF7EE"/>
<path d="M63.25 105.336C62.354 105.336 61.5793 105.135 60.926 104.734C60.282 104.323 59.8107 103.754 59.512 103.026C59.2133 102.289 59.1293 101.435 59.26 100.464L60.1 94.388C60.24 93.4173 60.562 92.568 61.066 91.84C61.5793 91.112 62.2187 90.5473 62.984 90.146C63.7493 89.7447 64.58 89.544 65.476 89.544C66.2693 89.544 66.932 89.7073 67.464 90.034C68.0053 90.3513 68.416 90.804 68.696 91.392L68.416 91.728L69.48 84H71.02L68.08 105H66.54L66.82 103.152L67.016 103.488C66.5867 104.057 66.0547 104.51 65.42 104.846C64.7853 105.173 64.062 105.336 63.25 105.336ZM63.572 103.796C64.5707 103.796 65.3873 103.488 66.022 102.872C66.666 102.256 67.0533 101.463 67.184 100.492L68.024 94.388C68.1547 93.4173 67.9913 92.624 67.534 92.008C67.086 91.392 66.3487 91.084 65.322 91.084C64.3327 91.084 63.5067 91.3873 62.844 91.994C62.1813 92.5913 61.78 93.3893 61.64 94.388L60.8 100.464C60.66 101.453 60.8373 102.256 61.332 102.872C61.8267 103.488 62.5733 103.796 63.572 103.796ZM80.6844 105.336C79.7884 105.336 79.0137 105.135 78.3604 104.734C77.7164 104.323 77.245 103.754 76.9464 103.026C76.6477 102.289 76.5637 101.435 76.6944 100.464L77.5344 94.388C77.6744 93.4173 77.9964 92.568 78.5004 91.84C79.0137 91.112 79.653 90.5473 80.4184 90.146C81.1837 89.7447 82.0144 89.544 82.9104 89.544C83.7037 89.544 84.3664 89.7073 84.8984 90.034C85.4397 90.3513 85.8504 90.804 86.1304 91.392L85.8504 91.728L86.1024 89.88H87.6424L85.5144 105H83.9744L84.2544 103.152L84.4504 103.488C84.021 104.057 83.489 104.51 82.8544 104.846C82.2197 105.173 81.4964 105.336 80.6844 105.336ZM81.0064 103.796C82.005 103.796 82.8217 103.488 83.4564 102.872C84.1004 102.256 84.4877 101.463 84.6184 100.492L85.4584 94.388C85.589 93.4173 85.4257 92.624 84.9684 92.008C84.5204 91.392 83.783 91.084 82.7564 91.084C81.767 91.084 80.941 91.3873 80.2784 91.994C79.6157 92.5913 79.2144 93.3893 79.0744 94.388L78.2344 100.464C78.0944 101.453 78.2717 102.256 78.7664 102.872C79.261 103.488 80.0077 103.796 81.0064 103.796ZM97.7828 105.336C96.4108 105.336 95.3374 104.939 94.5628 104.146C93.7974 103.343 93.5128 102.284 93.7088 100.968L93.7928 100.408H95.3328L95.2488 100.996C95.1274 101.836 95.3281 102.513 95.8508 103.026C96.3828 103.539 97.1014 103.796 98.0068 103.796C98.9961 103.796 99.8128 103.493 100.457 102.886C101.11 102.279 101.437 101.467 101.437 100.45C101.437 99.8807 101.325 99.456 101.101 99.176C100.886 98.8867 100.578 98.6767 100.177 98.546C99.7754 98.4153 99.2994 98.2987 98.7488 98.196C97.9088 98.0373 97.1808 97.8647 96.5648 97.678C95.9581 97.482 95.4868 97.1693 95.1508 96.74C94.8241 96.3013 94.6608 95.6433 94.6608 94.766C94.6608 93.7113 94.8894 92.792 95.3468 92.008C95.8134 91.224 96.4434 90.6173 97.2368 90.188C98.0301 89.7587 98.9261 89.544 99.9248 89.544C101.315 89.544 102.384 89.9453 103.131 90.748C103.887 91.5507 104.162 92.596 103.957 93.884L103.873 94.416H102.333L102.417 93.884C102.547 93.044 102.356 92.3673 101.843 91.854C101.339 91.3407 100.629 91.084 99.7148 91.084C98.7161 91.084 97.8808 91.392 97.2088 92.008C96.5368 92.6147 96.2008 93.4313 96.2008 94.458C96.2008 95.0273 96.3128 95.452 96.5368 95.732C96.7608 96.012 97.0781 96.2173 97.4888 96.348C97.8994 96.4693 98.3848 96.5813 98.9448 96.684C99.7754 96.8333 100.494 97.0107 101.101 97.216C101.707 97.412 102.174 97.734 102.501 98.182C102.837 98.6207 103.005 99.2787 103.005 100.156C103.005 101.192 102.776 102.097 102.319 102.872C101.871 103.647 101.255 104.253 100.471 104.692C99.6868 105.121 98.7908 105.336 97.7828 105.336ZM110.027 105L112.967 84H114.507L113.415 91.756L113.219 91.448C113.667 90.832 114.213 90.356 114.857 90.02C115.501 89.684 116.215 89.516 116.999 89.516C117.913 89.516 118.669 89.726 119.267 90.146C119.873 90.5567 120.303 91.126 120.555 91.854C120.816 92.582 120.881 93.4173 120.751 94.36L119.267 105H117.727L119.211 94.36C119.351 93.3613 119.178 92.5633 118.693 91.966C118.217 91.3593 117.531 91.056 116.635 91.056C115.701 91.056 114.903 91.3593 114.241 91.966C113.587 92.5633 113.191 93.3613 113.051 94.36L111.567 105H110.027ZM132.193 105.336C131.4 105.336 130.732 105.177 130.191 104.86C129.659 104.533 129.253 104.076 128.973 103.488L129.253 103.152L129.001 105H127.461L130.401 84H131.941L130.849 91.728L130.653 91.392C131.092 90.8133 131.624 90.3607 132.249 90.034C132.884 89.7073 133.607 89.544 134.419 89.544C135.343 89.544 136.122 89.754 136.757 90.174C137.401 90.5847 137.868 91.154 138.157 91.882C138.456 92.61 138.54 93.4453 138.409 94.388L137.569 100.464C137.438 101.435 137.116 102.289 136.603 103.026C136.09 103.754 135.45 104.323 134.685 104.734C133.929 105.135 133.098 105.336 132.193 105.336ZM132.333 103.796C133.332 103.796 134.162 103.488 134.825 102.872C135.488 102.256 135.889 101.453 136.029 100.464L136.869 94.388C137.009 93.3893 136.832 92.5913 136.337 91.994C135.852 91.3873 135.11 91.084 134.111 91.084C133.131 91.084 132.314 91.3827 131.661 91.98C131.017 92.5773 130.625 93.38 130.485 94.388L129.645 100.492C129.514 101.463 129.678 102.256 130.135 102.872C130.592 103.488 131.325 103.796 132.333 103.796ZM149.207 105.336C147.807 105.336 146.72 104.888 145.945 103.992C145.171 103.096 144.886 101.92 145.091 100.464L145.931 94.388C146.071 93.408 146.398 92.5587 146.911 91.84C147.434 91.112 148.087 90.5473 148.871 90.146C149.655 89.7447 150.505 89.544 151.419 89.544C152.829 89.544 153.902 89.9967 154.639 90.902C155.377 91.8073 155.647 92.9693 155.451 94.388L154.611 100.464C154.481 101.435 154.159 102.289 153.645 103.026C153.141 103.754 152.507 104.323 151.741 104.734C150.976 105.135 150.131 105.336 149.207 105.336ZM149.403 103.796C150.383 103.796 151.205 103.488 151.867 102.872C152.53 102.256 152.931 101.453 153.071 100.464L153.911 94.388C154.051 93.3893 153.874 92.5913 153.379 91.994C152.885 91.3873 152.152 91.084 151.181 91.084C150.201 91.084 149.371 91.3873 148.689 91.994C148.017 92.5913 147.611 93.3893 147.471 94.388L146.631 100.464C146.491 101.453 146.673 102.256 147.177 102.872C147.691 103.488 148.433 103.796 149.403 103.796ZM166.161 105.336C165.265 105.336 164.49 105.135 163.837 104.734C163.193 104.323 162.722 103.754 162.423 103.026C162.124 102.289 162.04 101.435 162.171 100.464L163.011 94.388C163.151 93.4173 163.473 92.568 163.977 91.84C164.49 91.112 165.13 90.5473 165.895 90.146C166.66 89.7447 167.491 89.544 168.387 89.544C169.18 89.544 169.843 89.7073 170.375 90.034C170.916 90.3513 171.327 90.804 171.607 91.392L171.327 91.728L171.579 89.88H173.119L170.991 105H169.451L169.731 103.152L169.927 103.488C169.498 104.057 168.966 104.51 168.331 104.846C167.696 105.173 166.973 105.336 166.161 105.336ZM166.483 103.796C167.482 103.796 168.298 103.488 168.933 102.872C169.577 102.256 169.964 101.463 170.095 100.492L170.935 94.388C171.066 93.4173 170.902 92.624 170.445 92.008C169.997 91.392 169.26 91.084 168.233 91.084C167.244 91.084 166.418 91.3873 165.755 91.994C165.092 92.5913 164.691 93.3893 164.551 94.388L163.711 100.464C163.571 101.453 163.748 102.256 164.243 102.872C164.738 103.488 165.484 103.796 166.483 103.796ZM179.381 105L181.509 89.88H183.049L182.741 91.952L182.545 91.644C182.993 91.028 183.544 90.552 184.197 90.216C184.851 89.88 185.56 89.712 186.325 89.712H186.969L186.773 91.252H185.961C185.028 91.252 184.23 91.5553 183.567 92.162C182.914 92.7593 182.517 93.5573 182.377 94.556L180.921 105H179.381ZM195.534 105.336C194.638 105.336 193.863 105.135 193.21 104.734C192.566 104.323 192.094 103.754 191.796 103.026C191.497 102.289 191.413 101.435 191.544 100.464L192.384 94.388C192.524 93.4173 192.846 92.568 193.35 91.84C193.863 91.112 194.502 90.5473 195.268 90.146C196.033 89.7447 196.864 89.544 197.76 89.544C198.553 89.544 199.216 89.7073 199.748 90.034C200.289 90.3513 200.7 90.804 200.98 91.392L200.7 91.728L201.764 84H203.304L200.364 105H198.824L199.104 103.152L199.3 103.488C198.87 104.057 198.338 104.51 197.704 104.846C197.069 105.173 196.346 105.336 195.534 105.336ZM195.856 103.796C196.854 103.796 197.671 103.488 198.306 102.872C198.95 102.256 199.337 101.463 199.468 100.492L200.308 94.388C200.438 93.4173 200.275 92.624 199.818 92.008C199.37 91.392 198.632 91.084 197.606 91.084C196.616 91.084 195.79 91.3873 195.128 91.994C194.465 92.5913 194.064 93.3893 193.924 94.388L193.084 100.464C192.944 101.453 193.121 102.256 193.616 102.872C194.11 103.488 194.857 103.796 195.856 103.796Z" fill="#FAF7EE"/>
</svg>
